<?xml version="1.0"?><svg version="1.2" baseProfile="tiny-ps" viewBox="0 0 300 300" xmlns="http://www.w3.org/2000/svg" xmlns:xlink="http://www.w3.org/1999/xlink"><title>High Ip</title><g><g fill="#fefeff" transform="matrix(.1 0 0 -.1 0 300)"><path d="M0 1500V0h3000v3000H0V1500z"/></g><g fill="#f9ead7" transform="matrix(.1 0 0 -.1 0 300)"><path d="M1165 2899c-130-31-338-125-465-213l-74-51-99-95-99-95-64-85-64-85-60-116-59-116-31-94c-17-52-39-143-50-203l-20-109 1-141v-141l12-75 12-75 19-3 19-4-6 16c-3 8-11 55-18 103l-12 88 6 150 5 150 21 91c42 188 105 334 211 493l62 92 86 90 86 90 84 64c153 114 330 201 497 242l75 18v25l-17-1c-10-1-36-5-58-10zM580 1585v-436l68 3 67 3 3 183 2 182h460l2-182 3-183h140v860l-72 3-73 3v-361H720v360H580v-435zm877 429-7-7v-847h150l-2 428-3 427-65 3-66 3-7-7zm267-8c-3-7-4-40-2-72l3-59 290-3 290-2 13-17 12-17v-142l-12-17-13-17-290-2-290-3-3-247-2-248h140v360h495l34 18c19 9 44 30 55 45l21 28 3 136 4 136-17 43-16 42-22 15c-12 8-46 19-75 26l-53 11h-560l-5-14zm1190-243c3-21 11-85 17-143l10-105-7-100c-17-258-97-496-242-712l-54-83-85-90-85-90-100-76-100-75-122-59-121-58-86-26c-47-14-93-26-102-26h-18l-6-15c-3-9-3-18-1-21 7-6 194 49 268 81 88 37 180 88 270 149l75 51 116 115 115 115 63 95c78 119 140 246 181 375l32 100 19 130c23 155 23 233 4 378-15 112-19 127-37 127h-11l7-37zm-772-505c-18-18-15-27 19-47l31-19-12-7-11-7-14 12-13 11-7-12-8-11 14-9c8-5 24-9 36-9h22l6 20 7 21-12 14c-7 8-19 15-26 15-8 0-14 5-14 11v11l20-5 20-5v28h-23c-13 0-28-5-35-12zm118-42v-56h20v40h10c5 0 14-8 19-19l10-18h51v28l-20-6-20-6-1 18c-1 10-2 29-2 43l-2 25-32 3-33 3v-55zm50 24c0-5-7-10-15-10s-15 5-15 10c0 6 7 10 15 10s15-4 15-10zm70-24v-56h70v20h-39l-3 42-3 41-12 5-13 4v-56zm-160-41v-17l11 4c6 2 11 8 11 13s-5 11-11 13l-11 4v-17z"/></g><g fill="#abccde" transform="matrix(.1 0 0 -.1 0 300)"><path d="M1165 2899c-131-31-339-126-464-212-40-28-118-94-172-145l-100-95-64-86-65-86-60-116-59-116-31-94c-17-52-39-143-50-203l-20-109 1-141v-141l12-75 12-75 19-3 19-4-6 16c-3 8-11 55-18 103l-12 88 6 150 5 150 20 91c44 189 106 334 212 493l62 92 86 90 85 90 91 68c152 114 323 196 491 238l75 18v25l-17-1c-10-1-36-5-58-10zm-578-885-7-7v-847h140v360h460v-360h140v861l-67-3-68-3-3-177-2-178H720l-2 178-3 177-60 3-61 3-7-7zm873-429v-425h130v850h-130v-425zm270 361v-66h561l20-10 19-11v-189l-26-10-25-10h-549v-491l63 3 62 3 3 177 2 177 248 3 247 3 35 18 36 17 17 29 17 29v284l-16 34-17 35-31 17-31 17-317 3-318 3v-65zm1184-183c3-21 11-85 17-143l10-105-6-100c-18-258-98-496-243-712l-54-83-85-90-85-90-100-76-100-75-122-59-121-58-86-26c-47-14-93-26-102-26h-18l-6-15c-3-9-3-18-1-21 7-6 194 49 268 81 88 37 180 88 270 149l75 51 116 115 115 115 63 95c152 230 230 470 247 755l6 100-15 118c-17 122-21 137-39 137h-11l7-37zm-767-499c-4-4-7-16-7-26v-18l25-10c14-5 25-14 25-21v-11l-32 8-33 7 14-17c23-28 71-14 71 21v13l-25 12c-14 6-25 16-25 21v9l21-5 20-5-4 11c-4 14-39 21-50 11zm113-50v-55l10 6c6 3 10 13 10 21v14h30v-14c0-8 4-17 9-20l9-6v47l-1 48-11 7c-6 4-21 8-33 8h-23v-56zm48 24c-2-6-10-14-16-16l-12-4v32h32l-4-12zm79 21c-5-9-7-34-5-55l3-39 33-3 32-3v21h-49l-3 48-4 47-7-16zm-167-89c0-5 5-10 10-10 6 0 10 5 10 10 0 6-4 10-10 10-5 0-10-4-10-10zm130-1v-10l10 6c6 3 10 8 10 11 0 2-4 4-10 4-5 0-10-5-10-11z"/></g><g fill="#fdad43" transform="matrix(.1 0 0 -.1 0 300)"><path d="M1153 2889c-161-42-334-124-476-226l-80-58-91-90-91-90-58-82c-32-45-83-129-113-186l-54-104-34-104c-18-57-42-147-51-199l-18-95v-310l11-64 11-64 12-11 12-11-7 35c-3 19-11 77-17 130l-11 95 6 110c16 270 94 506 241 724 82 123 153 202 270 298 154 129 334 225 513 274 42 12 86 25 96 28l20 7-10 6c-5 3-42-3-81-13zM580 1585v-426l68 3 67 3 3 178 2 177h470v-360h130v850h-130l-2-177-3-178-232-3-233-2v360H580v-425zm880 0v-425h130v850h-130v-425zm270 361v-66h561l20-10 19-11v-189l-26-10-25-10h-549v-491l63 3 62 3 3 177 2 177 248 3 247 3 35 18 36 17 17 29 17 29v284l-16 34-17 35-31 17-31 17-317 3-318 3v-65zm1184-166c3-14 10-54 16-90l10-65v-253l-20-114-19-113-32-95c-40-122-105-251-183-365l-61-90-91-92-92-92-83-60-83-61-105-54c-103-52-201-89-308-116l-53-14V88l36 7c74 13 221 67 319 116l100 50 87 62c335 240 541 582 599 996l12 84-6 151c-6 154-16 220-37 240l-11 11 5-25zm-761-517-13-5v-38l25-10c14-5 25-15 25-21v-11l-25 4-25 5v-7c0-7 24-20 35-20 2 0 10 7 19 15l15 16-5 13c-3 8-16 17-30 20-13 4-24 11-24 16v10h55l-15 10c-16 11-19 11-37 3zm107-47v-46h20v20c0 26 14 25 32-2l14-21v44l-1 44-32 3-33 3v-45zm50 19v-15h-30v30h30v-15zm82-17-2-48 33 1 32 2-27 4-27 4-4 42-4 42-1-47z"/></g><g fill="#539fca" transform="matrix(.1 0 0 -.1 0 300)"><path d="M1153 2889c-161-42-334-124-476-226l-80-58-91-90-91-90-58-82c-32-45-83-129-113-186l-54-104-34-104c-18-57-42-147-51-199l-18-95v-310l11-64 11-64 12-11 12-11-7 35c-3 19-11 77-17 130l-11 95 6 110c16 270 94 506 241 724 82 123 153 202 270 298 154 129 334 225 513 274 42 12 86 25 96 28l20 7-10 6c-5 3-42-3-81-13zM580 1585v-426l68 3 67 3 3 178 2 177h470v-360h130v850h-130l-2-177-3-178-232-3-233-2v360H580v-425zm2334 195c3-14 10-54 16-90l10-65v-253l-20-114-19-113-32-95c-40-122-105-251-183-365l-61-90-91-92-92-92-83-60-83-61-105-54c-103-52-201-89-308-116l-53-14V88l36 7c74 13 221 67 319 116l100 50 87 62c335 240 541 582 599 996l12 84-6 151c-6 154-16 220-37 240l-11 11 5-25zm-761-517-13-5v-38l25-10c14-5 25-15 25-21v-11l-25 4-25 5v-7c0-7 24-20 35-20 2 0 10 7 19 15l15 16-5 13c-3 8-16 17-30 20-13 4-24 11-24 16v10h55l-15 10c-16 11-19 11-37 3zm107-47v-46h20v20c0 26 14 25 32-2l14-21v44l-1 44-32 3-33 3v-45zm50 19v-15h-30v30h30v-15zm82-17-2-48 33 1 32 2-27 4-27 4-4 42-4 42-1-47z"/></g><g fill="#060606" transform="matrix(.1 0 0 -.1 0 300)"><path d="M590 1585v-425h120v360h480v-360h130v850h-130v-360l-237 2-238 3-3 178-2 177H590v-425zm1555-335-7-11 12-14c7-8 19-15 27-15h15l-5-20-5-20h18v40l-25 10c-27 10-33 25-12 33l12 5-12 1c-6 1-15-4-18-9zm122 3c-4-3-6-22-6-42l1-36 5 18 4 17h38l6-21c4-11 9-18 12-16 2 3 0 14-6 25l-10 19 11 11 10 10-6 11c-4 6-13 11-19 11h-12l14-9 14-9-7-11c-4-6-16-11-28-11h-20l5 20c5 21 4 24-6 13zm126-38v-50l4 28c2 15 2 37 0 50l-4 22v-50zm-246-36c7-7 15-10 18-7s-2 9-12 12l-18 7 12-12z"/></g></g></svg>