<svg xmlns="http://www.w3.org/2000/svg" xmlns:xlink="http://www.w3.org/1999/xlink" width="500" zoomAndPan="magnify" viewBox="0 0 375 374.999991" height="500" preserveAspectRatio="xMidYMid meet" version="1.0"><defs><g/><clipPath id="414ccbe2d4"><path d="M 35 38 L 339 38 L 339 336 L 35 336 Z M 35 38 " clip-rule="nonzero"/></clipPath><clipPath id="8f1c5576ce"><path d="M 13.9375 327.082031 L 26.757812 33.363281 L 360.941406 47.953125 L 348.117188 341.671875 Z M 13.9375 327.082031 " clip-rule="nonzero"/></clipPath><clipPath id="4ae8890ed0"><path d="M 13.9375 327.082031 L 26.757812 33.363281 L 360.941406 47.953125 L 348.117188 341.671875 Z M 13.9375 327.082031 " clip-rule="nonzero"/></clipPath></defs><rect x="-37.5" width="450" fill="#ffffff" y="-37.499999" height="449.999989" fill-opacity="1"/><rect x="-37.5" width="450" fill="#ffffff" y="-37.499999" height="449.999989" fill-opacity="1"/><g fill="#000000" fill-opacity="1"><g transform="translate(81.516174, 222.867395)"><g><path d="M 70.734375 0 L 70.734375 -37.765625 L 21.078125 -37.765625 L 21.078125 0 L 7.21875 0 L 7.21875 -89.265625 L 21.078125 -89.265625 L 21.078125 -51.640625 L 70.734375 -51.640625 L 70.734375 -89.265625 L 84.59375 -89.265625 L 84.59375 0 Z M 70.734375 0 "/></g></g></g><g fill="#fcaa41" fill-opacity="1"><g transform="translate(173.368817, 222.867395)"><g><path d="M 21.078125 -89.265625 L 21.078125 0 L 7.21875 0 L 7.21875 -89.265625 Z M 21.078125 -89.265625 "/></g></g></g><g fill="#fcaa41" fill-opacity="1"><g transform="translate(201.662739, 222.867395)"><g><path d="M 65.921875 -37.765625 L 21.078125 -37.765625 L 21.078125 0 L 7.21875 0 L 7.21875 -51.640625 L 63.515625 -51.640625 C 68.328125 -51.640625 70.734375 -52.863281 70.734375 -55.3125 L 70.734375 -71.15625 C 70.734375 -73.988281 68.328125 -75.40625 63.515625 -75.40625 L 7.21875 -75.40625 L 7.21875 -89.265625 L 65.21875 -89.265625 C 78.132812 -89.265625 84.59375 -84.265625 84.59375 -74.265625 L 84.59375 -52.484375 C 84.59375 -42.765625 78.367188 -37.859375 65.921875 -37.765625 Z M 65.921875 -37.765625 "/></g></g></g><g clip-path="url(#414ccbe2d4)"><g clip-path="url(#8f1c5576ce)"><g clip-path="url(#4ae8890ed0)"><path fill="#399fd8" d="M 38.90625 218.011719 C 38.410156 215.605469 37.976562 213.1875 37.601562 210.761719 C 37.226562 208.335938 36.910156 205.902344 36.652344 203.457031 C 36.394531 201.015625 36.195312 198.570312 36.058594 196.117188 C 35.921875 193.667969 35.839844 191.210938 35.820312 188.757812 C 35.804688 186.300781 35.84375 183.847656 35.941406 181.394531 C 36.042969 178.9375 36.203125 176.488281 36.421875 174.042969 C 36.640625 171.597656 36.917969 169.160156 37.257812 166.726562 C 37.59375 164.292969 37.992188 161.871094 38.445312 159.457031 C 38.902344 157.042969 39.414062 154.644531 39.988281 152.253906 C 40.558594 149.867188 41.1875 147.496094 41.875 145.136719 C 42.5625 142.78125 43.308594 140.441406 44.109375 138.117188 C 44.910156 135.796875 45.765625 133.496094 46.679688 131.21875 C 47.59375 128.9375 48.558594 126.679688 49.582031 124.449219 C 50.605469 122.214844 51.679688 120.007812 52.808594 117.828125 C 53.941406 115.648438 55.121094 113.496094 56.355469 111.371094 C 57.589844 109.25 58.875 107.15625 60.210938 105.097656 C 61.546875 103.035156 62.933594 101.011719 64.367188 99.015625 C 65.800781 97.023438 67.28125 95.066406 68.8125 93.144531 C 70.339844 91.222656 71.917969 89.339844 73.539062 87.496094 C 75.15625 85.652344 76.824219 83.847656 78.53125 82.082031 C 80.238281 80.320312 81.992188 78.597656 83.78125 76.917969 C 85.574219 75.238281 87.40625 73.605469 89.277344 72.015625 C 91.148438 70.425781 93.058594 68.882812 95.003906 67.386719 C 96.953125 65.886719 98.933594 64.4375 100.953125 63.039062 C 102.96875 61.636719 105.019531 60.285156 107.101562 58.984375 C 109.183594 57.683594 111.296875 56.433594 113.441406 55.234375 C 115.582031 54.039062 117.753906 52.890625 119.953125 51.800781 C 122.152344 50.707031 124.378906 49.667969 126.625 48.683594 C 128.875 47.699219 131.148438 46.769531 133.441406 45.894531 C 135.738281 45.019531 138.050781 44.199219 140.386719 43.4375 C 142.722656 42.675781 145.074219 41.972656 147.441406 41.324219 C 149.808594 40.675781 152.195312 40.085938 154.589844 39.554688 C 155.476562 39.355469 156.378906 39.164062 157.296875 38.980469 L 158 41.332031 C 157.039062 41.527344 156.078125 41.726562 155.117188 41.941406 C 152.742188 42.46875 150.378906 43.054688 148.03125 43.695312 C 145.683594 44.339844 143.351562 45.039062 141.039062 45.792969 C 138.726562 46.550781 136.433594 47.363281 134.160156 48.230469 C 131.886719 49.101562 129.632812 50.023438 127.40625 51.003906 C 125.179688 51.980469 122.976562 53.015625 120.796875 54.101562 C 118.621094 55.1875 116.46875 56.328125 114.347656 57.519531 C 112.226562 58.710938 110.132812 59.957031 108.074219 61.25 C 106.011719 62.542969 103.984375 63.886719 101.988281 65.28125 C 99.992188 66.675781 98.03125 68.117188 96.109375 69.609375 C 94.183594 71.097656 92.296875 72.632812 90.445312 74.214844 C 88.597656 75.796875 86.789062 77.425781 85.015625 79.09375 C 83.246094 80.765625 81.519531 82.480469 79.832031 84.234375 C 78.148438 85.988281 76.503906 87.785156 74.90625 89.621094 C 73.308594 91.457031 71.757812 93.332031 70.25 95.242188 C 68.746094 97.15625 67.285156 99.101562 65.875 101.085938 C 64.464844 103.066406 63.101562 105.085938 61.789062 107.136719 C 60.476562 109.183594 59.21875 111.265625 58.007812 113.378906 C 56.796875 115.488281 55.636719 117.628906 54.53125 119.796875 C 53.425781 121.964844 52.375 124.160156 51.378906 126.378906 C 50.378906 128.597656 49.4375 130.84375 48.546875 133.109375 C 47.660156 135.375 46.828125 137.660156 46.050781 139.96875 C 45.273438 142.273438 44.554688 144.597656 43.890625 146.941406 C 43.230469 149.28125 42.625 151.640625 42.078125 154.011719 C 41.53125 156.382812 41.042969 158.765625 40.613281 161.160156 C 40.179688 163.558594 39.808594 165.960938 39.496094 168.375 C 39.183594 170.789062 38.929688 173.210938 38.738281 175.636719 C 38.542969 178.0625 38.40625 180.492188 38.332031 182.925781 C 38.257812 185.355469 38.242188 187.789062 38.285156 190.222656 C 38.328125 192.65625 38.433594 195.089844 38.597656 197.515625 C 38.757812 199.945312 38.980469 202.367188 39.261719 204.785156 C 39.542969 207.203125 39.882812 209.613281 40.285156 212.011719 C 40.683594 214.414062 41.140625 216.804688 41.660156 219.183594 C 40.75 218.773438 39.839844 218.378906 38.910156 218.011719 Z M 217.316406 333.644531 C 218.105469 333.480469 218.890625 333.316406 219.679688 333.140625 C 222.0625 332.613281 224.429688 332.027344 226.78125 331.382812 C 229.136719 330.738281 231.472656 330.035156 233.789062 329.277344 C 236.109375 328.519531 238.410156 327.703125 240.6875 326.832031 C 242.964844 325.960938 245.222656 325.03125 247.457031 324.050781 C 249.691406 323.066406 251.898438 322.03125 254.082031 320.9375 C 256.261719 319.847656 258.417969 318.703125 260.542969 317.507812 C 262.671875 316.3125 264.765625 315.0625 266.832031 313.761719 C 268.894531 312.464844 270.929688 311.113281 272.925781 309.714844 C 274.925781 308.316406 276.890625 306.867188 278.816406 305.371094 C 280.746094 303.875 282.636719 302.335938 284.488281 300.746094 C 286.339844 299.15625 288.152344 297.523438 289.921875 295.847656 C 291.695312 294.167969 293.425781 292.449219 295.113281 290.6875 C 296.800781 288.925781 298.445312 287.121094 300.042969 285.277344 C 301.640625 283.4375 303.195312 281.554688 304.703125 279.636719 C 306.207031 277.714844 307.667969 275.761719 309.078125 273.769531 C 310.488281 271.78125 311.851562 269.753906 313.164062 267.699219 C 314.472656 265.640625 315.734375 263.550781 316.941406 261.433594 C 318.152344 259.3125 319.308594 257.164062 320.410156 254.988281 C 321.515625 252.8125 322.566406 250.609375 323.558594 248.382812 C 324.554688 246.15625 325.496094 243.90625 326.382812 241.628906 C 327.265625 239.355469 328.09375 237.0625 328.867188 234.746094 C 329.640625 232.433594 330.355469 230.101562 331.011719 227.75 C 331.671875 225.402344 332.269531 223.039062 332.8125 220.660156 C 333.355469 218.28125 333.839844 215.886719 334.261719 213.484375 C 334.6875 211.082031 335.050781 208.671875 335.359375 206.25 C 335.664062 203.828125 335.910156 201.402344 336.097656 198.96875 C 336.285156 196.535156 336.414062 194.101562 336.480469 191.660156 C 336.546875 189.222656 336.554688 186.785156 336.503906 184.34375 C 336.453125 181.90625 336.339844 179.46875 336.167969 177.035156 C 335.996094 174.597656 335.765625 172.171875 335.472656 169.75 C 335.183594 167.324219 334.832031 164.910156 334.421875 162.507812 C 334.011719 160.101562 333.546875 157.707031 333.019531 155.324219 C 333.925781 155.746094 334.839844 156.152344 335.769531 156.535156 C 336.273438 158.945312 336.71875 161.363281 337.101562 163.796875 C 337.488281 166.226562 337.8125 168.667969 338.078125 171.113281 C 338.34375 173.558594 338.550781 176.011719 338.699219 178.46875 C 338.847656 180.925781 338.933594 183.386719 338.960938 185.847656 C 338.988281 188.308594 338.953125 190.769531 338.863281 193.226562 C 338.769531 195.6875 338.617188 198.144531 338.402344 200.59375 C 338.191406 203.046875 337.917969 205.492188 337.589844 207.929688 C 337.257812 210.371094 336.867188 212.800781 336.417969 215.21875 C 335.964844 217.640625 335.457031 220.046875 334.890625 222.441406 C 334.324219 224.835938 333.699219 227.21875 333.015625 229.582031 C 332.332031 231.945312 331.59375 234.292969 330.796875 236.621094 C 330 238.949219 329.144531 241.257812 328.234375 243.546875 C 327.324219 245.832031 326.363281 248.097656 325.339844 250.335938 C 324.320312 252.578125 323.246094 254.789062 322.121094 256.980469 C 320.992188 259.167969 319.8125 261.324219 318.578125 263.457031 C 317.347656 265.585938 316.0625 267.683594 314.726562 269.753906 C 313.394531 271.820312 312.007812 273.855469 310.574219 275.855469 C 309.140625 277.855469 307.65625 279.820312 306.128906 281.75 C 304.597656 283.675781 303.023438 285.566406 301.402344 287.417969 C 299.777344 289.269531 298.113281 291.082031 296.402344 292.851562 C 294.691406 294.621094 292.941406 296.347656 291.148438 298.035156 C 289.351562 299.71875 287.519531 301.359375 285.644531 302.953125 C 283.769531 304.550781 281.859375 306.097656 279.910156 307.601562 C 277.960938 309.105469 275.972656 310.558594 273.953125 311.964844 C 271.933594 313.371094 269.878906 314.726562 267.792969 316.03125 C 265.707031 317.339844 263.589844 318.59375 261.445312 319.796875 C 259.296875 321 257.121094 322.148438 254.917969 323.246094 C 252.714844 324.34375 250.484375 325.382812 248.230469 326.371094 C 245.976562 327.359375 243.699219 328.292969 241.398438 329.171875 C 239.101562 330.050781 236.78125 330.871094 234.441406 331.632812 C 232.101562 332.398438 229.746094 333.105469 227.371094 333.753906 C 224.996094 334.40625 222.609375 334.996094 220.207031 335.53125 C 219.480469 335.6875 218.753906 335.839844 218.03125 335.992188 Z M 217.316406 333.644531 " fill-opacity="1" fill-rule="evenodd"/></g></g></g><g fill="#000000" fill-opacity="1"><g transform="translate(251.26411, 222.362117)"><g><path d="M 4.46875 0.140625 C 3.820312 0.140625 3.242188 0.0546875 2.734375 -0.109375 C 2.222656 -0.285156 1.796875 -0.515625 1.453125 -0.796875 C 1.117188 -1.085938 0.867188 -1.398438 0.703125 -1.734375 L 1.359375 -2.53125 L 1.53125 -2.53125 C 2.164062 -1.46875 3.144531 -0.9375 4.46875 -0.9375 C 5.238281 -0.9375 5.8125 -1.097656 6.1875 -1.421875 C 6.5625 -1.742188 6.75 -2.191406 6.75 -2.765625 C 6.75 -3.097656 6.6875 -3.378906 6.5625 -3.609375 C 6.4375 -3.847656 6.226562 -4.046875 5.9375 -4.203125 C 5.65625 -4.367188 5.269531 -4.515625 4.78125 -4.640625 L 3.59375 -4.9375 C 2.695312 -5.144531 2.039062 -5.484375 1.625 -5.953125 C 1.207031 -6.421875 1 -7.015625 1 -7.734375 C 1 -8.242188 1.128906 -8.695312 1.390625 -9.09375 C 1.648438 -9.488281 2.03125 -9.796875 2.53125 -10.015625 C 3.03125 -10.242188 3.628906 -10.359375 4.328125 -10.359375 C 5.097656 -10.359375 5.75 -10.25 6.28125 -10.03125 C 6.8125 -9.820312 7.234375 -9.5 7.546875 -9.0625 L 6.953125 -8.28125 L 6.78125 -8.28125 C 6.488281 -8.632812 6.140625 -8.894531 5.734375 -9.0625 C 5.335938 -9.226562 4.867188 -9.3125 4.328125 -9.3125 C 3.617188 -9.3125 3.082031 -9.171875 2.71875 -8.890625 C 2.363281 -8.617188 2.1875 -8.242188 2.1875 -7.765625 C 2.1875 -7.304688 2.316406 -6.9375 2.578125 -6.65625 C 2.847656 -6.382812 3.296875 -6.175781 3.921875 -6.03125 L 5.15625 -5.734375 C 6.144531 -5.503906 6.859375 -5.144531 7.296875 -4.65625 C 7.742188 -4.175781 7.96875 -3.5625 7.96875 -2.8125 C 7.96875 -2.238281 7.835938 -1.726562 7.578125 -1.28125 C 7.328125 -0.832031 6.9375 -0.484375 6.40625 -0.234375 C 5.882812 0.015625 5.238281 0.140625 4.46875 0.140625 Z M 4.46875 0.140625 "/></g></g></g><g fill="#000000" fill-opacity="1"><g transform="translate(260.022426, 222.362117)"><g><path d="M 1.875 0.0625 C 1.613281 0.0625 1.40625 -0.0078125 1.25 -0.15625 C 1.09375 -0.300781 1.015625 -0.5 1.015625 -0.75 C 1.015625 -0.988281 1.09375 -1.1875 1.25 -1.34375 C 1.40625 -1.5 1.613281 -1.578125 1.875 -1.578125 C 2.144531 -1.578125 2.359375 -1.5 2.515625 -1.34375 C 2.671875 -1.195312 2.75 -1.003906 2.75 -0.765625 C 2.75 -0.515625 2.671875 -0.3125 2.515625 -0.15625 C 2.359375 -0.0078125 2.144531 0.0625 1.875 0.0625 Z M 1.875 0.0625 "/></g></g></g><g fill="#000000" fill-opacity="1"><g transform="translate(263.789973, 222.362117)"><g><path d="M 1.546875 0 L 1.546875 -10.21875 L 5.25 -10.21875 C 5.9375 -10.21875 6.515625 -10.101562 6.984375 -9.875 C 7.453125 -9.65625 7.800781 -9.335938 8.03125 -8.921875 C 8.257812 -8.503906 8.375 -8.015625 8.375 -7.453125 C 8.375 -6.816406 8.210938 -6.289062 7.890625 -5.875 C 7.578125 -5.46875 7.085938 -5.164062 6.421875 -4.96875 L 6.421875 -4.8125 C 6.753906 -4.6875 7.023438 -4.484375 7.234375 -4.203125 C 7.441406 -3.921875 7.632812 -3.503906 7.8125 -2.953125 L 8.75 0 L 7.515625 0 L 6.5 -3.125 C 6.375 -3.488281 6.234375 -3.773438 6.078125 -3.984375 C 5.921875 -4.203125 5.71875 -4.351562 5.46875 -4.4375 C 5.226562 -4.53125 4.925781 -4.578125 4.5625 -4.578125 L 2.75 -4.578125 L 2.75 0 Z M 5.234375 -5.609375 C 5.867188 -5.609375 6.34375 -5.753906 6.65625 -6.046875 C 6.96875 -6.347656 7.125 -6.800781 7.125 -7.40625 C 7.125 -8.007812 6.96875 -8.457031 6.65625 -8.75 C 6.34375 -9.050781 5.867188 -9.203125 5.234375 -9.203125 L 2.75 -9.203125 L 2.75 -5.609375 Z M 5.234375 -5.609375 "/></g></g></g><g fill="#000000" fill-opacity="1"><g transform="translate(273.254261, 222.362117)"><g><path d="M 1.875 0.0625 C 1.613281 0.0625 1.40625 -0.0078125 1.25 -0.15625 C 1.09375 -0.300781 1.015625 -0.5 1.015625 -0.75 C 1.015625 -0.988281 1.09375 -1.1875 1.25 -1.34375 C 1.40625 -1.5 1.613281 -1.578125 1.875 -1.578125 C 2.144531 -1.578125 2.359375 -1.5 2.515625 -1.34375 C 2.671875 -1.195312 2.75 -1.003906 2.75 -0.765625 C 2.75 -0.515625 2.671875 -0.3125 2.515625 -0.15625 C 2.359375 -0.0078125 2.144531 0.0625 1.875 0.0625 Z M 1.875 0.0625 "/></g></g></g><g fill="#000000" fill-opacity="1"><g transform="translate(277.021808, 222.362117)"><g><path d="M 2.75 -10.21875 L 2.75 -1 L 7.671875 -1 L 7.671875 0 L 1.546875 0 L 1.546875 -10.21875 Z M 2.75 -10.21875 "/></g></g></g></svg>